# Blender v2.93.1 OBJ File: ''
# www.blender.org
mtllib arrow.mtl
o Cone
v 0.000000 1.000000 1.000000
v 0.951057 1.000000 0.309017
v 0.587785 1.000000 -0.809017
v -0.587785 1.000000 -0.809017
v -0.951056 1.000000 0.309017
v 0.000000 -1.000000 0.000000
v 0.000000 1.000000 1.000000
v 0.951057 1.000000 0.309017
v 0.587785 1.000000 -0.809017
v -0.587785 1.000000 -0.809017
v -0.951056 1.000000 0.309017
vt 0.250000 0.490000
vt 0.250000 0.250000
vt 0.478254 0.324164
vt 0.391068 0.055836
vt 0.108932 0.055836
vt 0.021746 0.324164
vt 0.108932 0.055836
vt 0.021746 0.324164
vt 0.978254 0.324164
vt 0.608932 0.055836
vt 0.521746 0.324164
vt 0.391068 0.055836
vt 0.478254 0.324164
vt 0.250000 0.490000
vt 0.750000 0.490000
vt 0.891068 0.055836
vn 0.0000 -0.1885 0.9821
vn 0.0000 -1.0000 0.0000
vn 0.4332 -0.2277 0.8720
vn 0.5301 -0.4509 0.7180
vn -0.5300 -0.4509 0.7181
vn 0.0000 0.5145 0.8575
vn -0.4332 -0.2278 0.8720
usemtl None
s 1
f 1/1/1 6/2/2 2/3/3
f 2/3/3 6/2/2 3/4/4
f 3/4/4 6/2/2 4/5/5
f 4/5/5 11/6/6 10/7/6
f 4/5/5 6/2/2 5/8/7
f 5/8/7 6/2/2 1/1/1
f 8/9/6 10/10/6 11/11/6
f 3/4/4 10/7/6 9/12/6
f 2/3/3 9/12/6 8/13/6
f 1/1/1 8/13/6 7/14/6
f 5/8/7 7/14/6 11/6/6
f 4/5/5 5/8/7 11/6/6
f 11/11/6 7/15/6 8/9/6
f 8/9/6 9/16/6 10/10/6
f 3/4/4 4/5/5 10/7/6
f 2/3/3 3/4/4 9/12/6
f 1/1/1 2/3/3 8/13/6
f 5/8/7 1/1/1 7/14/6
o Cylinder
v 0.000000 0.885487 -0.430000
v 0.000000 2.885487 -0.430000
v 0.372391 0.885487 -0.215000
v 0.372391 2.885487 -0.215000
v 0.372391 0.885487 0.215000
v 0.372391 2.885487 0.215000
v -0.000000 0.885487 0.430000
v -0.000000 2.885487 0.430000
v -0.372391 0.885487 0.215000
v -0.372391 2.885487 0.215000
v -0.372391 0.885487 -0.215000
v -0.372391 2.885487 -0.215000
vt 1.000000 1.000000
vt 0.833333 0.500000
vt 1.000000 0.500000
vt 0.833333 1.000000
vt 0.666667 0.500000
vt 0.666667 1.000000
vt 0.500000 0.500000
vt 0.500000 1.000000
vt 0.333333 0.500000
vt 0.250000 0.010000
vt 0.457846 0.130000
vt 0.250000 0.490000
vt 0.333333 1.000000
vt 0.166667 0.500000
vt 0.166667 1.000000
vt -0.000000 0.500000
vt 0.957846 0.370000
vt 0.750000 0.010000
vt 0.542154 0.370000
vt 0.457846 0.370000
vt 0.042154 0.370000
vt 0.042154 0.130000
vt -0.000000 1.000000
vt 0.750000 0.490000
vt 0.957846 0.130000
vt 0.542154 0.130000
vn 0.0000 0.6100 -0.7924
vn 0.6862 -0.6100 -0.3962
vn 0.0000 -0.6100 -0.7924
vn 0.6862 0.6100 -0.3962
vn 0.6862 -0.6100 0.3962
vn 0.6862 0.6100 0.3962
vn 0.0000 -0.6100 0.7924
vn 0.0000 0.6100 0.7924
vn -0.6862 -0.6100 0.3962
vn -0.6862 0.6100 0.3962
vn -0.6862 -0.6100 -0.3962
vn -0.6862 0.6100 -0.3962
usemtl None
s 1
f 13/17/8 14/18/9 12/19/10
f 15/20/11 16/21/12 14/18/9
f 17/22/13 18/23/14 16/21/12
f 19/24/15 20/25/16 18/23/14
f 19/26/15 17/27/13 13/28/8
f 21/29/17 22/30/18 20/25/16
f 23/31/19 12/32/10 22/30/18
f 14/33/9 18/34/14 22/35/18
f 13/17/8 15/20/11 14/18/9
f 15/20/11 17/22/13 16/21/12
f 17/22/13 19/24/15 18/23/14
f 19/24/15 21/29/17 20/25/16
f 17/27/13 15/36/11 13/28/8
f 13/28/8 23/37/19 21/38/17
f 21/38/17 19/26/15 13/28/8
f 21/29/17 23/31/19 22/30/18
f 23/31/19 13/39/8 12/32/10
f 22/35/18 12/40/10 14/33/9
f 14/33/9 16/41/12 18/34/14
f 18/34/14 20/42/16 22/35/18
